<svg width="284" height="248" viewBox="0 0 284 248" fill="none" xmlns="http://www.w3.org/2000/svg">
<g filter="url(#filter0_d_2_181)">
<g filter="url(#filter1_d_2_181)">
<path d="M124.545 124C138.101 124 149.091 113.255 149.091 100C149.091 86.7452 138.101 76 124.545 76C110.989 76 99.9999 86.7452 99.9999 100C99.9999 113.255 110.989 124 124.545 124Z" fill="url(#paint0_linear_2_181)"/>
</g>
<path d="M116.957 108.329V91.67C116.957 91.5068 117.001 91.3464 117.086 91.2059C117.172 91.0654 117.294 90.9499 117.44 90.8716C117.587 90.7932 117.752 90.7549 117.919 90.7606C118.086 90.7663 118.248 90.8158 118.389 90.904L131.707 99.234C131.838 99.3161 131.947 99.4294 132.022 99.5634C132.097 99.6974 132.136 99.8477 132.136 100C132.136 100.153 132.097 100.304 132.022 100.438C131.947 100.572 131.838 100.685 131.707 100.767L118.389 109.096C118.248 109.184 118.086 109.234 117.919 109.239C117.752 109.245 117.586 109.207 117.44 109.128C117.293 109.05 117.171 108.934 117.086 108.793C117.001 108.653 116.956 108.492 116.957 108.329Z" fill="#FD695A"/>
<path d="M117.316 108.33V91.6401C117.315 91.6198 117.315 91.5994 117.316 91.5791C117.316 91.6541 117.316 91.5911 117.316 91.5701C117.328 91.5281 117.339 91.4861 117.352 91.4461C117.328 91.5161 117.344 91.4581 117.352 91.4391C117.359 91.4201 117.396 91.3821 117.413 91.3541C117.43 91.3261 117.436 91.3241 117.446 91.3121C117.403 91.3681 117.431 91.3281 117.444 91.3121C117.476 91.2841 117.508 91.2531 117.544 91.2231C117.487 91.2721 117.53 91.2321 117.549 91.2211L117.608 91.1851L117.659 91.1601C117.729 91.1221 117.606 91.1741 117.676 91.1531C117.72 91.1411 117.765 91.1271 117.81 91.1171C117.762 91.1101 117.892 91.0961 117.81 91.1171C117.833 91.1182 117.856 91.1182 117.879 91.1171C117.898 91.1159 117.917 91.1159 117.937 91.1171C117.937 91.1171 118.03 91.1331 117.975 91.1171L118.016 91.1291C118.045 91.1363 118.073 91.145 118.1 91.1551C118.112 91.1551 118.163 91.1741 118.1 91.1551L118.182 91.1971C118.19 91.2016 118.198 91.2066 118.206 91.2121H118.213L118.315 91.2751L118.852 91.6101L120.946 92.9201C121.932 93.5394 122.916 94.1564 123.898 94.7711C124.941 95.4224 125.984 96.0747 127.029 96.7281L129.723 98.4121C130.258 98.7454 130.793 99.0787 131.329 99.4121C131.382 99.4451 131.431 99.4781 131.485 99.5121L131.52 99.5331L131.574 99.5681C131.518 99.5261 131.574 99.5681 131.583 99.5801C131.592 99.5921 131.631 99.6291 131.654 99.6531C131.678 99.6771 131.683 99.7051 131.654 99.6531C131.664 99.6691 131.676 99.6831 131.685 99.7001C131.694 99.7171 131.712 99.7491 131.726 99.7751C131.74 99.8011 131.742 99.8341 131.726 99.7681C131.74 99.8131 131.755 99.8551 131.767 99.9021C131.771 99.9199 131.774 99.9379 131.776 99.9561C131.762 99.8671 131.776 99.9561 131.776 99.9721C131.776 99.9881 131.764 100.136 131.776 100.042C131.77 100.087 131.759 100.132 131.745 100.176C131.74 100.194 131.734 100.211 131.726 100.228C131.733 100.214 131.75 100.155 131.726 100.228C131.715 100.249 131.704 100.27 131.69 100.289C131.683 100.298 131.628 100.373 131.678 100.31C131.646 100.347 131.612 100.382 131.576 100.415C131.522 100.457 131.566 100.424 131.576 100.415C131.556 100.429 131.545 100.436 131.522 100.45C131.513 100.457 131.503 100.464 131.492 100.469L130.265 101.233L127.794 102.785C126.761 103.43 125.728 104.075 124.697 104.721L121.652 106.626C120.858 107.123 120.065 107.619 119.272 108.114C118.917 108.337 118.566 108.562 118.208 108.78C118.169 108.803 118.131 108.825 118.09 108.846C118.106 108.839 118.15 108.816 118.09 108.846L118.018 108.867C117.995 108.874 117.97 108.876 117.947 108.883C118.011 108.864 117.983 108.883 117.956 108.883C117.909 108.885 117.862 108.885 117.815 108.883C117.747 108.883 117.815 108.883 117.827 108.883C117.801 108.883 117.772 108.874 117.745 108.867C117.719 108.86 117.617 108.822 117.659 108.839C117.701 108.856 117.597 108.806 117.578 108.794C117.558 108.782 117.539 108.766 117.515 108.757C117.469 108.736 117.57 108.811 117.515 108.757C117.481 108.724 117.448 108.694 117.413 108.657C117.463 108.711 117.404 108.641 117.386 108.617C117.369 108.593 117.36 108.568 117.345 108.544C117.331 108.52 117.331 108.488 117.345 108.551C117.34 108.501 117.323 108.457 117.311 108.412C117.311 108.349 117.311 108.393 117.311 108.412C117.314 108.384 117.314 108.356 117.311 108.328C117.31 108.235 117.271 108.146 117.204 108.08C117.137 108.015 117.046 107.977 116.951 107.976C116.856 107.979 116.766 108.017 116.7 108.083C116.634 108.149 116.596 108.238 116.595 108.33C116.595 108.555 116.657 108.776 116.774 108.97C116.891 109.164 117.059 109.324 117.26 109.433C117.462 109.542 117.689 109.597 117.92 109.591C118.15 109.585 118.374 109.518 118.57 109.399C118.659 109.345 118.747 109.289 118.833 109.233L120.583 108.14L123.395 106.382C124.456 105.715 125.519 105.05 126.583 104.387L129.488 102.571C130.14 102.163 130.793 101.754 131.447 101.345L131.856 101.09C131.988 101.01 132.106 100.908 132.204 100.79C132.357 100.603 132.453 100.377 132.481 100.138C132.509 99.9 132.468 99.6587 132.362 99.4421C132.22 99.1889 132.007 98.9807 131.748 98.8421L131.169 98.4821L128.978 97.1121L125.955 95.2191C124.897 94.5584 123.838 93.8967 122.779 93.2341L120.125 91.5751L118.675 90.6671C118.519 90.5591 118.343 90.4835 118.156 90.4448C117.97 90.4061 117.777 90.4051 117.59 90.4421C117.301 90.5122 117.046 90.6761 116.865 90.9068C116.684 91.1376 116.589 91.4215 116.595 91.7121V108.335C116.596 108.428 116.634 108.517 116.701 108.583C116.769 108.649 116.86 108.686 116.955 108.687C117.05 108.684 117.14 108.645 117.207 108.578C117.274 108.512 117.313 108.423 117.316 108.33Z" fill="#FD695A"/>
</g>
<path d="M184.859 92.684L180.377 105.5H179.117L175.463 95.006L171.791 105.5H170.549L166.049 92.684H167.561L171.197 103.394L174.923 92.684L176.057 92.702L179.729 103.43L183.401 92.684H184.859ZM193.834 96.446V105.5H192.394V103.862C192.13 104.426 191.728 104.864 191.188 105.176C190.66 105.476 190.042 105.626 189.334 105.626C188.53 105.626 187.822 105.434 187.21 105.05C186.61 104.666 186.142 104.126 185.806 103.43C185.482 102.722 185.32 101.9 185.32 100.964C185.32 100.028 185.488 99.206 185.824 98.498C186.16 97.778 186.628 97.22 187.228 96.824C187.84 96.428 188.542 96.23 189.334 96.23C190.042 96.23 190.66 96.386 191.188 96.698C191.716 97.01 192.118 97.448 192.394 98.012V96.446H193.834ZM189.622 104.42C190.51 104.42 191.194 104.12 191.674 103.52C192.154 102.908 192.394 102.044 192.394 100.928C192.394 99.812 192.154 98.954 191.674 98.354C191.194 97.754 190.51 97.454 189.622 97.454C188.734 97.454 188.038 97.766 187.534 98.39C187.042 99.002 186.796 99.86 186.796 100.964C186.796 102.068 187.042 102.92 187.534 103.52C188.026 104.12 188.722 104.42 189.622 104.42ZM198.597 97.598V102.548C198.597 103.22 198.735 103.694 199.011 103.97C199.287 104.234 199.677 104.366 200.181 104.366C200.517 104.366 200.841 104.312 201.153 104.204V105.446C200.781 105.566 200.361 105.626 199.893 105.626C199.029 105.626 198.351 105.386 197.859 104.906C197.379 104.414 197.139 103.694 197.139 102.746V97.598H195.375V96.446H197.139V94.124L198.597 93.602V96.446H201.189V97.598H198.597ZM206.744 105.626C205.868 105.626 205.1 105.434 204.44 105.05C203.792 104.666 203.288 104.126 202.928 103.43C202.58 102.722 202.406 101.9 202.406 100.964C202.406 100.028 202.586 99.206 202.946 98.498C203.306 97.778 203.816 97.22 204.476 96.824C205.148 96.428 205.928 96.23 206.816 96.23C207.428 96.23 208.016 96.338 208.58 96.554C209.156 96.758 209.63 97.046 210.002 97.418L209.516 98.498C209.06 98.138 208.616 97.874 208.184 97.706C207.764 97.538 207.332 97.454 206.888 97.454C205.964 97.454 205.238 97.766 204.71 98.39C204.182 99.002 203.918 99.86 203.918 100.964C203.918 102.056 204.176 102.908 204.692 103.52C205.22 104.12 205.952 104.42 206.888 104.42C207.332 104.42 207.764 104.336 208.184 104.168C208.616 104 209.06 103.736 209.516 103.376L210.002 104.456C209.618 104.816 209.132 105.104 208.544 105.32C207.968 105.524 207.368 105.626 206.744 105.626ZM216.377 96.23C218.549 96.23 219.635 97.424 219.635 99.812V105.5H218.177V99.884C218.177 99.044 218.009 98.432 217.673 98.048C217.337 97.652 216.809 97.454 216.089 97.454C215.249 97.454 214.577 97.712 214.073 98.228C213.569 98.744 213.317 99.44 213.317 100.316V105.5H211.859V92.252H213.317V97.922C213.605 97.37 214.013 96.95 214.541 96.662C215.081 96.374 215.693 96.23 216.377 96.23ZM238.205 92.684L232.607 105.5H231.311L225.713 92.684H227.279L231.977 103.628L236.675 92.684H238.205ZM239.632 96.446H241.09V105.5H239.632V96.446ZM241.27 92.612V94.268H239.488V92.612H241.27ZM251.895 92.252V105.5H250.455V103.862C250.191 104.426 249.789 104.864 249.249 105.176C248.721 105.476 248.103 105.626 247.395 105.626C246.603 105.626 245.901 105.428 245.289 105.032C244.689 104.636 244.221 104.084 243.885 103.376C243.549 102.656 243.381 101.828 243.381 100.892C243.381 99.956 243.543 99.14 243.867 98.444C244.203 97.736 244.677 97.19 245.289 96.806C245.901 96.422 246.603 96.23 247.395 96.23C248.103 96.23 248.721 96.386 249.249 96.698C249.777 96.998 250.173 97.424 250.437 97.976V92.252H251.895ZM247.683 104.42C248.571 104.42 249.255 104.12 249.735 103.52C250.215 102.908 250.455 102.044 250.455 100.928C250.455 99.824 250.215 98.972 249.735 98.372C249.255 97.76 248.571 97.454 247.683 97.454C246.795 97.454 246.099 97.754 245.595 98.354C245.103 98.954 244.857 99.8 244.857 100.892C244.857 102.008 245.103 102.878 245.595 103.502C246.099 104.114 246.795 104.42 247.683 104.42ZM262.292 100.928H255.65C255.662 102.08 255.926 102.95 256.442 103.538C256.97 104.126 257.732 104.42 258.728 104.42C259.784 104.42 260.756 104.066 261.644 103.358L262.13 104.42C261.734 104.792 261.224 105.086 260.6 105.302C259.988 105.518 259.358 105.626 258.71 105.626C257.294 105.626 256.184 105.212 255.38 104.384C254.576 103.544 254.174 102.398 254.174 100.946C254.174 100.022 254.354 99.206 254.714 98.498C255.074 97.778 255.578 97.22 256.226 96.824C256.874 96.428 257.612 96.23 258.44 96.23C259.64 96.23 260.582 96.626 261.266 97.418C261.95 98.198 262.292 99.278 262.292 100.658V100.928ZM258.458 97.364C257.702 97.364 257.084 97.592 256.604 98.048C256.136 98.504 255.836 99.146 255.704 99.974H260.978C260.906 99.122 260.654 98.474 260.222 98.03C259.802 97.586 259.214 97.364 258.458 97.364ZM268.249 105.626C267.397 105.626 266.647 105.434 265.999 105.05C265.351 104.666 264.847 104.12 264.487 103.412C264.139 102.704 263.965 101.876 263.965 100.928C263.965 99.98 264.139 99.152 264.487 98.444C264.847 97.736 265.351 97.19 265.999 96.806C266.647 96.422 267.397 96.23 268.249 96.23C269.101 96.23 269.851 96.422 270.499 96.806C271.147 97.19 271.645 97.736 271.993 98.444C272.353 99.152 272.533 99.98 272.533 100.928C272.533 101.876 272.353 102.704 271.993 103.412C271.645 104.12 271.147 104.666 270.499 105.05C269.851 105.434 269.101 105.626 268.249 105.626ZM268.249 104.42C269.149 104.42 269.839 104.126 270.319 103.538C270.799 102.938 271.039 102.068 271.039 100.928C271.039 99.824 270.793 98.972 270.301 98.372C269.809 97.76 269.125 97.454 268.249 97.454C267.361 97.454 266.671 97.76 266.179 98.372C265.687 98.972 265.441 99.824 265.441 100.928C265.441 102.068 265.681 102.938 266.161 103.538C266.653 104.126 267.349 104.42 268.249 104.42Z" fill="#FD695A"/>
<defs>
<filter id="filter0_d_2_181" x="77.9999" y="58" width="93.0909" height="92" filterUnits="userSpaceOnUse" color-interpolation-filters="sRGB">
<feFlood flood-opacity="0" result="BackgroundImageFix"/>
<feColorMatrix in="SourceAlpha" type="matrix" values="0 0 0 0 0 0 0 0 0 0 0 0 0 0 0 0 0 0 127 0" result="hardAlpha"/>
<feOffset dy="4"/>
<feGaussianBlur stdDeviation="11"/>
<feComposite in2="hardAlpha" operator="out"/>
<feColorMatrix type="matrix" values="0 0 0 0 0 0 0 0 0 0 0 0 0 0 0 0 0 0 0.05 0"/>
<feBlend mode="normal" in2="BackgroundImageFix" result="effect1_dropShadow_2_181"/>
<feBlend mode="normal" in="SourceGraphic" in2="effect1_dropShadow_2_181" result="shape"/>
</filter>
<filter id="filter1_d_2_181" x="-6.10352e-05" y="0" width="249.091" height="248" filterUnits="userSpaceOnUse" color-interpolation-filters="sRGB">
<feFlood flood-opacity="0" result="BackgroundImageFix"/>
<feColorMatrix in="SourceAlpha" type="matrix" values="0 0 0 0 0 0 0 0 0 0 0 0 0 0 0 0 0 0 127 0" result="hardAlpha"/>
<feOffset dy="24"/>
<feGaussianBlur stdDeviation="50"/>
<feColorMatrix type="matrix" values="0 0 0 0 0 0 0 0 0 0 0 0 0 0 0 0 0 0 0.149 0"/>
<feBlend mode="normal" in2="BackgroundImageFix" result="effect1_dropShadow_2_181"/>
<feBlend mode="normal" in="SourceGraphic" in2="effect1_dropShadow_2_181" result="shape"/>
</filter>
<linearGradient id="paint0_linear_2_181" x1="99.9999" y1="77.4694" x2="157.316" y2="94.736" gradientUnits="userSpaceOnUse">
<stop stop-color="white" stop-opacity="0.57"/>
<stop offset="0.9999" stop-color="white" stop-opacity="0.28"/>
<stop offset="1" stop-color="white" stop-opacity="0.69"/>
</linearGradient>
</defs>
</svg>
